# xmcd
#
# Track frame offsets: 
#        150
#        18231
#        41555
#        57380
#        72810
#        88768
#        108267
#        129517
#        140898
#        163485
#        183085
#
# Disc length: 2639 seconds
#
# Revision: 0
# Processed by: cddbd v1.5.2PL0 Copyright (c) Steve Scherf et al.
# Submitted via: ExactAudioCopy v0.99pb5
#
DISCID=9a0a4d0b
DTITLE=King Tyrone and The Graveyard Ramblers - Chicken Bone Alley
DYEAR=2013
DGENRE=Blues
TTITLE0=The Driver
TTITLE1=Calling Muddy Waters
TTITLE2=Aint No Buzz About Me
TTITLE3=Trouble In Turn Four
TTITLE4=Im A Man
TTITLE5=Shes My Tequila
TTITLE6=Bad Magic
TTITLE7=13Th Annual Going Out Of Business Sell
TTITLE8=Little Head
TTITLE9=Get Your Junk Together
TTITLE10=Thats The Truth
EXTD=
EXTT0=
EXTT1=
EXTT2=
EXTT3=
EXTT4=
EXTT5=
EXTT6=
EXTT7=
EXTT8=
EXTT9=
EXTT10=
PLAYORDER=
